<svg width="96" height="96" viewBox="0 0 96 96" fill="none" xmlns="http://www.w3.org/2000/svg">
<path d="M92.7734 47.75C92.7734 53.0107 88.4509 58.3727 80.0918 62.5523C71.8659 66.6653 60.3461 69.2734 47.5 69.2734C34.6539 69.2734 23.1341 66.6653 14.9082 62.5523C6.54906 58.3727 2.22656 53.0107 2.22656 47.75C2.22656 42.4893 6.54906 37.1273 14.9082 32.9477C23.1341 28.8347 34.6539 26.2266 47.5 26.2266C60.3461 26.2266 71.8659 28.8347 80.0918 32.9477C88.4509 37.1273 92.7734 42.4893 92.7734 47.75Z" fill="black" stroke="white" stroke-width="4.45312"/>
<path d="M35.8837 45.5982C37.5989 43.4782 39.1974 41.6812 40.6793 40.201C40.591 40.5069 40.4946 40.8404 40.39 41.2018C39.7256 43.498 38.8909 46.3227 37.8856 49.6766L37.8855 49.6766L37.8821 49.6885C36.9153 53.0503 36.1665 55.6724 35.636 57.5539L35.6145 57.6304L35.604 57.7091L35.5916 57.8018L35.5916 57.8021L35.5915 57.8025L35.5915 57.8029L35.5914 57.8032L35.5914 57.8036L35.5914 57.804L35.5913 57.8043L35.5913 57.8047L35.5912 57.805L35.5912 57.8054L35.5911 57.8058L35.5911 57.8061L35.591 57.8065L35.591 57.8069L35.5909 57.8072L35.5909 57.8076L35.5908 57.808L35.5908 57.8084L35.5907 57.8087L35.5907 57.8091L35.5906 57.8095L35.5906 57.8098L35.5905 57.8102L35.5905 57.8106L35.5904 57.8109L35.5904 57.8113L35.5903 57.8117L35.5903 57.8121L35.5902 57.8124L35.5902 57.8128L35.5901 57.8132L35.5901 57.8135L35.59 57.8139L35.59 57.8143L35.5899 57.8147L35.5899 57.815L35.5898 57.8154L35.5898 57.8158L35.5897 57.8162L35.5897 57.8165L35.5896 57.8169L35.5896 57.8173L35.5895 57.8177L35.5895 57.818L35.5894 57.8184L35.5894 57.8188L35.5893 57.8192L35.5893 57.8196L35.5892 57.8199L35.5892 57.8203L35.5891 57.8207L35.5891 57.8211L35.589 57.8215L35.589 57.8218L35.5889 57.8222L35.5889 57.8226L35.5888 57.823L35.5888 57.8234L35.5887 57.8238L35.5887 57.8241L35.5886 57.8245L35.5886 57.8249L35.5885 57.8253L35.5885 57.8257L35.5884 57.8261L35.5884 57.8264L35.5883 57.8268L35.5883 57.8272L35.5882 57.8276L35.5882 57.828L35.5881 57.8284L35.588 57.8288L35.588 57.8291L35.5879 57.8295L35.5879 57.8299L35.5878 57.8303L35.5878 57.8307L35.5877 57.8311L35.5877 57.8315L35.5876 57.8319L35.5876 57.8323L35.5875 57.8327L35.5875 57.833L35.5874 57.8334L35.5874 57.8338L35.5873 57.8342L35.5873 57.8346L35.5872 57.835L35.5872 57.8354L35.5871 57.8358L35.5871 57.8362L35.587 57.8366L35.587 57.837L35.5869 57.8374L35.5868 57.8378L35.5868 57.8382L35.5867 57.8386L35.5867 57.839L35.5866 57.8393L35.5866 57.8397L35.5865 57.8401L35.5865 57.8405L35.5864 57.8409L35.5864 57.8413L35.5863 57.8417L35.5863 57.8421L35.5862 57.8425L35.5862 57.8429L35.5861 57.8433L35.5861 57.8437L35.586 57.8441L35.5859 57.8445L35.5859 57.8449L35.5858 57.8453L35.5858 57.8457L35.5857 57.8461L35.5857 57.8466L35.5856 57.847L35.5856 57.8474L35.5855 57.8478L35.5855 57.8482L35.5854 57.8486L35.5854 57.849L35.5853 57.8494L35.5852 57.8498L35.5852 57.8502L35.5851 57.8506L35.5851 57.851L35.585 57.8514L35.585 57.8518L35.5849 57.8522L35.5849 57.8526L35.5848 57.8531L35.5848 57.8535L35.5847 57.8539L35.5846 57.8543L35.5846 57.8547L35.5845 57.8551L35.5845 57.8555L35.5844 57.8559L35.5844 57.8563L35.5843 57.8567L35.5843 57.8572L35.5842 57.8576L35.5842 57.858L35.5841 57.8584L35.584 57.8588L35.584 57.8592L35.5839 57.8596L35.5839 57.8601L35.5838 57.8605L35.5838 57.8609L35.5837 57.8613L35.5837 57.8617L35.5836 57.8621L35.5835 57.8626L35.5835 57.863L35.5834 57.8634L35.5834 57.8638L35.5833 57.8642L35.5833 57.8646L35.5832 57.8651L35.5832 57.8655L35.5831 57.8659L35.583 57.8663L35.583 57.8667L35.5829 57.8672L35.5829 57.8676L35.5828 57.868L35.5828 57.8684L35.5827 57.8688L35.5827 57.8693L35.5826 57.8697L35.5825 57.8701L35.5825 57.8705L35.5824 57.871L35.5824 57.8714L35.5823 57.8718L35.5823 57.8722L35.5822 57.8727L35.5821 57.8731L35.5821 57.8735L35.582 57.8739L35.582 57.8744L35.5819 57.8748L35.5819 57.8752L35.5818 57.8757L35.5817 57.8761L35.5817 57.8765L35.5816 57.8769L35.5816 57.8774L35.5815 57.8778L35.5815 57.8782L35.5814 57.8787L35.5813 57.8791L35.5813 57.8795L35.5812 57.88L35.5812 57.8804L35.5811 57.8808L35.5811 57.8813L35.581 57.8817L35.5809 57.8821L35.5809 57.8825L35.5808 57.883L35.5808 57.8834L35.5807 57.8839L35.5807 57.8843L35.5806 57.8847L35.5805 57.8852L35.5805 57.8856L35.5804 57.886L35.5804 57.8865L35.5803 57.8869L35.5802 57.8873L35.5802 57.8878L35.5801 57.8882L35.5801 57.8887L35.58 57.8891L35.58 57.8895L35.5799 57.89L35.5798 57.8904L35.5798 57.8909L35.5797 57.8913L35.5797 57.8917L35.5796 57.8922L35.5795 57.8926L35.5795 57.8931L35.5794 57.8935L35.5794 57.8939L35.5793 57.8944L35.5793 57.8948L35.5792 57.8953L35.5791 57.8957L35.5791 57.8962L35.579 57.8966L35.579 57.8971L35.5789 57.8975L35.5788 57.8979L35.5788 57.8984L35.5787 57.8988L35.5787 57.8993L35.5786 57.8997L35.5785 57.9002L35.5785 57.9006L35.5784 57.9011L35.5784 57.9015L35.5783 57.902L35.5782 57.9024L35.5782 57.9029L35.5781 57.9033L35.5781 57.9038L35.578 57.9042L35.5779 57.9047L35.5779 57.9051L35.5778 57.9056L35.5778 57.906L35.5777 57.9065L35.5776 57.9069L35.5776 57.9074L35.5775 57.9079L35.5775 57.9083L35.5774 57.9088L35.5773 57.9092L35.5773 57.9097L35.5772 57.9101L35.5772 57.9106L35.5771 57.911L35.577 57.9115L35.577 57.9119L35.5769 57.9124L35.5769 57.9129L35.5768 57.9133L35.5767 57.9138L35.5767 57.9142L35.5766 57.9147L35.5765 57.9152L35.5765 57.9156L35.5764 57.9161L35.5764 57.9165L35.5763 57.917L35.5762 57.9175L35.5762 57.9179L35.5761 57.9184L35.5761 57.9188L35.576 57.9193L35.5759 57.9198L35.5759 57.9202L35.5758 57.9207L35.5757 57.9212L35.5757 57.9216L35.5756 57.9221L35.5756 57.9226L35.5755 57.923L35.5754 57.9235L35.5754 57.924L35.5753 57.9244L35.5752 57.9249L35.5752 57.9254L35.5751 57.9258L35.5751 57.9263L35.575 57.9268L35.5749 57.9272L35.5749 57.9277L35.5748 57.9282L35.5748 57.9286L35.5747 57.9291L35.5746 57.9296L35.5746 57.93L35.5745 57.9305L35.5744 57.931L35.5744 57.9315L35.5743 57.9319L35.5742 57.9324L35.5742 57.9329L35.5741 57.9334L35.5741 57.9338L35.574 57.9343L35.5739 57.9348L35.5739 57.9352L35.5738 57.9357L35.5737 57.9362L35.5737 57.9367L35.5736 57.9371L35.5736 57.9376L35.5735 57.9381L35.5734 57.9386L35.5734 57.9391L35.5733 57.9395L35.5732 57.94L35.5732 57.9405L35.5731 57.941L35.573 57.9414L35.573 57.9419L35.5729 57.9424L35.5729 57.9429L35.5728 57.9434L35.5727 57.9439L35.5727 57.9443L35.5726 57.9448L35.5725 57.9453L35.5725 57.9458L35.5724 57.9463L35.5723 57.9467L35.5723 57.9472L35.5722 57.9477L35.5721 57.9482L35.5721 57.9487L35.572 57.9492L35.572 57.9497L35.5719 57.9501L35.5718 57.9506L35.5718 57.9511L35.5717 57.9516L35.5716 57.9521L35.5716 57.9526L35.5715 57.9531L35.5714 57.9535L35.5714 57.954L35.5713 57.9545L35.5712 57.955L35.5712 57.9555L35.5711 57.956L35.571 57.9565L35.571 57.957L35.5709 57.9575L35.5708 57.958L35.5708 57.9584L35.5707 57.9589L35.5707 57.9594L35.5706 57.9599L35.5705 57.9604L35.5705 57.9609L35.5704 57.9614L35.5703 57.9619L35.5703 57.9624L35.5702 57.9629L35.5701 57.9634L35.5701 57.9639L35.57 57.9644L35.5699 57.9649L35.5699 57.9654L35.5698 57.9659L35.5697 57.9664L35.5697 57.9669L35.5696 57.9674L35.5695 57.9679L35.5695 57.9684L35.5694 57.9689L35.5693 57.9693L35.5693 57.9698L35.5692 57.9704L35.5691 57.9708L35.5691 57.9714L35.569 57.9719L35.5689 57.9724L35.5689 57.9729L35.5688 57.9734L35.5687 57.9739L35.5687 57.9744L35.5686 57.9749L35.5685 57.9754L35.5685 57.9759L35.5684 57.9764L35.5683 57.9769L35.5683 57.9774L35.5682 57.9779L35.5681 57.9784L35.5681 57.9789L35.568 57.9794L35.5679 57.9799L35.5679 57.9804L35.5678 57.9809L35.5677 57.9814L35.5677 57.9819L35.5676 57.9825L35.5675 57.983L35.5674 57.9835L35.5674 57.984L35.5673 57.9845L35.5672 57.985L35.5672 57.9855L35.5671 57.986L35.567 57.9865L35.567 57.9871L35.5669 57.9876L35.5668 57.9881L35.5668 57.9886L35.5667 57.9891L35.5666 57.9896L35.5666 57.9901L35.5665 57.9906L35.5664 57.9912L35.5664 57.9917L35.5663 57.9922L35.5662 57.9927L35.5662 57.9932L35.5661 57.9937L35.566 57.9943L35.5659 57.9948L35.5659 57.9953L35.5658 57.9958L35.5657 57.9963L35.5657 57.9968L35.5656 57.9974L35.5655 57.9979L35.5655 57.9984L35.5654 57.9989L35.5653 57.9994L35.5653 58L35.5652 58.0005L35.5651 58.001L35.565 58.0015L35.565 58.002L35.5649 58.0026L35.5648 58.0031L35.5648 58.0036L35.5647 58.0041L35.5646 58.0047L35.5646 58.0052L35.5645 58.0057L35.5644 58.0062L35.5643 58.0068L35.5643 58.0073L35.5642 58.0078L35.5641 58.0083L35.5641 58.0089L35.564 58.0094L35.5639 58.0099L35.5639 58.0104L35.5638 58.011L35.5637 58.0115L35.5636 58.012L35.5636 58.0126L35.5635 58.0131L35.5634 58.0136L35.5634 58.0141L35.5633 58.0147L35.5632 58.0152L35.5632 58.0157L35.5631 58.0163L35.563 58.0168L35.5629 58.0173L35.5629 58.0179L35.5628 58.0184L35.5627 58.0189L35.5627 58.0195L35.5626 58.02L35.5625 58.0205L35.5624 58.0211L35.5624 58.0216L35.5623 58.0221L35.5622 58.0227L35.5622 58.0232L35.5621 58.0238L35.562 58.0243L35.5619 58.0248L35.5619 58.0254L35.5618 58.0259L35.5617 58.0264L35.5617 58.027L35.5616 58.0275L35.5615 58.0281L35.5614 58.0286L35.5614 58.0291L35.5613 58.0297L35.5612 58.0302L35.5612 58.0308L35.5611 58.0313L35.561 58.0318L35.5609 58.0324L35.5609 58.0329L35.5608 58.0335L35.531 58.2575L35.5908 58.4754C35.6064 58.5321 35.6242 58.6105 35.6426 58.7144L35.6516 58.7654L35.6654 58.8154C35.7416 59.0929 35.8843 59.3439 36.0865 59.5518C36.3608 59.8338 36.7003 59.9685 37.0196 60.011C37.5521 60.0819 38.0394 59.8994 38.4104 59.6987C38.7917 59.4923 39.1804 59.1953 39.5713 58.8433L44.0557 55.1685L44.0557 55.1685L44.0621 55.1631C47.0006 52.7181 50.5808 49.9756 54.8065 46.9348C57.2463 45.1791 59.381 43.7488 61.2149 42.636C60.3618 43.5332 59.6073 44.3284 58.9512 45.0216L58.9449 45.0283L58.9387 45.0351C57.6154 46.4805 55.9536 48.3956 53.9559 50.7761C51.9419 53.1498 50.3421 55.3186 49.1708 57.2797L49.1661 57.2876L49.1615 57.2956C48.034 59.2568 47.3203 61.0447 47.1084 62.6362C46.8817 64.3393 47.128 65.8838 47.9758 67.163C48.6781 68.2557 49.5796 69.1816 50.7538 69.3379C51.2202 69.4 51.7422 69.2825 52.1351 68.863C52.4702 68.5054 52.5867 68.0556 52.6327 67.7104C52.6578 67.5213 52.6599 67.3239 52.6499 67.1308L52.65 67.1302L52.6501 67.1292L52.6503 67.1283L52.6504 67.1274L52.6505 67.1264L52.6506 67.1255L52.6508 67.1246L52.6509 67.1237L52.651 67.1227L52.6511 67.1218L52.6512 67.1209L52.6514 67.12L52.6515 67.1191L52.6516 67.1181L52.6517 67.1172L52.6519 67.1163L52.652 67.1154L52.6521 67.1145L52.6522 67.1136L52.6523 67.1127L52.6525 67.1118L52.6526 67.1109L52.6527 67.11L52.6528 67.1091L52.6529 67.1082L52.6531 67.1073L52.6532 67.1064L52.6533 67.1055L52.6534 67.1046L52.6535 67.1037L52.6537 67.1028L52.6538 67.1019L52.6539 67.101L52.654 67.1001L52.6541 67.0992L52.6542 67.0984L52.6544 67.0975L52.6545 67.0966L52.6546 67.0957L52.6547 67.0948L52.6548 67.0939L52.655 67.0931L52.6551 67.0922L52.6552 67.0913L52.6553 67.0905L52.6554 67.0896L52.6555 67.0887L52.6556 67.0878L52.6558 67.087L52.6559 67.0861L52.656 67.0853L52.6561 67.0844L52.6562 67.0835L52.6563 67.0827L52.6564 67.0818L52.6566 67.081L52.6567 67.0801L52.6568 67.0793L52.6569 67.0784L52.657 67.0775L52.6571 67.0767L52.6572 67.0759L52.6574 67.075L52.6575 67.0742L52.6576 67.0733L52.6577 67.0725L52.6578 67.0716L52.6579 67.0708L52.658 67.07L52.6581 67.0691L52.6583 67.0683L52.6584 67.0675L52.6585 67.0666L52.6586 67.0658L52.6587 67.065L52.6588 67.0641L52.6589 67.0633L52.659 67.0625L52.6591 67.0617L52.6592 67.0608L52.6594 67.06L52.6595 67.0592L52.6596 67.0584L52.6597 67.0576L52.6598 67.0567L52.6599 67.0559L52.66 67.0551L52.6601 67.0543L52.6602 67.0535L52.6603 67.0527L52.6604 67.0519L52.6605 67.0511L52.6606 67.0503L52.6608 67.0495L52.6609 67.0487L52.661 67.0479L52.6611 67.0471L52.6612 67.0463L52.6613 67.0455L52.6614 67.0447L52.6615 67.0439L52.6616 67.0431L52.6617 67.0423L52.6618 67.0415L52.6619 67.0407L52.662 67.0399L52.6621 67.0392L52.6622 67.0384L52.6623 67.0376L52.6624 67.0368L52.6625 67.036L52.6626 67.0353L52.6628 67.0345L52.6629 67.0337L52.663 67.0329L52.6631 67.0322L52.6632 67.0314L52.6633 67.0306L52.6634 67.0299L52.6635 67.0291L52.6636 67.0283L52.6637 67.0276L52.6638 67.0268L52.6639 67.0261L52.664 67.0253L52.6641 67.0245L52.6642 67.0238L52.6643 67.023L52.6644 67.0223L52.6645 67.0215L52.6646 67.0208L52.6647 67.02L52.6648 67.0193L52.6649 67.0185L52.665 67.0178L52.6651 67.017L52.6652 67.0163L52.6653 67.0156L52.6654 67.0148L52.6655 67.0141L52.6656 67.0133L52.6657 67.0126L52.6658 67.0119L52.6659 67.0111L52.666 67.0104L52.6661 67.0097L52.6661 67.009L52.6662 67.0082L52.6663 67.0075L52.6664 67.0068L52.6665 67.0061L52.6666 67.0053L52.6667 67.0046L52.6668 67.0039L52.6669 67.0032L52.667 67.0025L52.6671 67.0018L52.6672 67.001L52.6673 67.0003L52.6674 66.9996L52.6675 66.9989L52.6676 66.9982L52.6677 66.9975L52.6678 66.9968L52.6679 66.9961L52.668 66.9954L52.668 66.9947L52.6681 66.994L52.6682 66.9933L52.6683 66.9926L52.6684 66.9919L52.6685 66.9912L52.6686 66.9905L52.6687 66.9898L52.6688 66.9892L52.6689 66.9885L52.669 66.9878L52.6691 66.9871L52.6691 66.9864L52.6692 66.9857L52.6693 66.9851L52.6694 66.9844L52.6695 66.9837L52.6696 66.983L52.6697 66.9824L52.6698 66.9817L52.6699 66.981L52.67 66.9803L52.67 66.9797L52.6701 66.979L52.6702 66.9783L52.6703 66.9777L52.6704 66.977L52.6705 66.9764L52.6706 66.9757L52.6707 66.975L52.6708 66.9744L52.6708 66.9737L52.6709 66.9731L52.671 66.9724L52.6711 66.9718L52.6712 66.9711L52.6713 66.9705L52.6714 66.9698L52.6714 66.9692L52.6715 66.9685L52.6716 66.9679L52.6717 66.9673L52.6718 66.9666L52.6719 66.966L52.672 66.9653L52.672 66.9647L52.6721 66.9641L52.6722 66.9634L52.6723 66.9628L52.6724 66.9622L52.6725 66.9615L52.6725 66.9609L52.6726 66.9603L52.6727 66.9597L52.6728 66.959L52.6729 66.9584L52.673 66.9578L52.673 66.9572L52.6731 66.9566L52.6732 66.9559L52.6733 66.9553L52.6734 66.9547L52.6735 66.9541L52.6735 66.9535L52.6736 66.9529L52.6737 66.9523L52.6738 66.9517L52.6739 66.9511L52.6739 66.9505L52.674 66.9499L52.6741 66.9493L52.6742 66.9487L52.6743 66.9481L52.6743 66.9475L52.6744 66.9469L52.6745 66.9463L52.6746 66.9457L52.6747 66.9451L52.6747 66.9445L52.6748 66.9439L52.6749 66.9433L52.675 66.9428L52.675 66.9422L52.6751 66.9416L52.6752 66.941L52.6753 66.9404L52.6753 66.9399L52.6754 66.9393L52.6755 66.9387L52.6756 66.9381L52.6757 66.9376L52.6757 66.937L52.6758 66.9364L52.6759 66.9359L52.676 66.9353L52.676 66.9347L52.6761 66.9342L52.6762 66.9336L52.6763 66.933L52.6763 66.9325L52.6764 66.9319L52.6765 66.9314L52.6766 66.9308L52.6766 66.9303L52.6767 66.9297L52.6768 66.9291L52.6768 66.9286L52.6769 66.9281L52.677 66.9275L52.6771 66.927L52.6771 66.9264L52.6772 66.9259L52.6773 66.9253L52.6774 66.9248L52.6774 66.9243L52.6775 66.9237L52.6776 66.9232L52.6776 66.9226L52.6777 66.9221L52.6778 66.9216L52.6779 66.9211L52.6779 66.9205L52.678 66.92L52.6781 66.9195L52.6781 66.919L52.6782 66.9184L52.6783 66.9179L52.6783 66.9174L52.6784 66.9169L52.6785 66.9164L52.6785 66.9158L52.6786 66.9153L52.6787 66.9148L52.6788 66.9143L52.6788 66.9138L52.6789 66.9133L52.679 66.9128L52.679 66.9123L52.6791 66.9118L52.6792 66.9113L52.6792 66.9108L52.6793 66.9103L52.6794 66.9098L52.6794 66.9093L52.6795 66.9088L52.6796 66.9083L52.6796 66.9078L52.6797 66.9073L52.6798 66.9068L52.6798 66.9063L52.6799 66.9058L52.6799 66.9053L52.68 66.9049L52.6801 66.9044L52.6801 66.9039L52.6802 66.9034L52.6803 66.9029L52.6803 66.9025L52.6804 66.902L52.6805 66.9015L52.6805 66.901L52.6806 66.9006L52.6806 66.9001L52.6807 66.8996L52.6808 66.8992L52.6808 66.8987L52.6809 66.8982L52.681 66.8978L52.681 66.8973L52.6811 66.8968L52.6811 66.8964L52.6812 66.8959L52.6813 66.8955L52.6813 66.895L52.6814 66.8946L52.6814 66.8941L52.6815 66.8937L52.6816 66.8932L52.6816 66.8928L52.6817 66.8923L52.6817 66.8919L52.6818 66.8914L52.6819 66.891L52.6819 66.8905L52.682 66.8901L52.682 66.8897L52.6821 66.8892L52.6821 66.8888L52.6822 66.8884L52.6823 66.8879L52.6823 66.8875L52.6824 66.8871L52.6824 66.8866L52.6825 66.8862L52.6825 66.8858L52.6826 66.8854L52.6827 66.8849L52.6827 66.8845L52.6828 66.8841L52.6828 66.8837L52.6829 66.8833L52.6829 66.8829L52.683 66.8824L52.683 66.882L52.6831 66.8816L52.6832 66.8812L52.6832 66.8808L52.6833 66.8804L52.6833 66.88L52.6834 66.8796L52.6834 66.8792L52.6835 66.8788L52.6835 66.8784L52.6836 66.878L52.6836 66.8776L52.6837 66.8772L52.6837 66.8768L52.6838 66.8764L52.6838 66.876L52.6839 66.8756L52.684 66.8752L52.684 66.8749L52.6841 66.8745L52.6841 66.8741L52.6842 66.8737L52.6842 66.8733L52.6843 66.8729L52.6843 66.8726L52.6844 66.8722L52.6844 66.8718L52.6845 66.8714L52.6845 66.8711L52.6846 66.8707L52.6846 66.8703L52.6847 66.87L52.6847 66.8696L52.6848 66.8692L52.6848 66.8689L52.6849 66.8685C52.8464 65.6554 53.5142 63.9736 54.8149 61.78C56.103 59.6076 57.9598 57.0182 60.4009 54.0062C60.4015 54.0054 60.4021 54.0046 60.4028 54.0038L63.1169 50.6919C64.9089 48.505 67.2904 45.8086 70.2665 42.5993C73.2272 39.4065 75.8596 36.8094 78.1657 34.8002C78.4024 34.6082 78.6235 34.3974 78.8004 34.1654C78.9783 33.9323 79.1559 33.6196 79.2068 33.2377C79.2762 32.7164 79.0805 32.2124 78.6559 31.8789C78.3149 31.6112 77.9073 31.5172 77.5994 31.4762C77.3785 31.4468 77.0267 31.4485 76.6484 31.4576L76.6176 31.4583L76.5869 31.4607C74.6135 31.6172 72.1355 32.4251 69.2005 33.7877C66.2697 35.1484 63.5227 36.6157 60.9605 38.1906L60.9604 38.1905L60.9524 38.1956C58.4523 39.7617 55.7668 41.5378 52.8964 43.523C50.0391 45.4991 48.0793 46.8888 47.0352 47.6815C46.454 48.1227 45.9427 48.5136 45.5017 48.8539C46.0507 46.1158 47.4363 40.1498 49.6816 30.887L49.6955 30.8299L49.7032 30.7717C49.8131 29.9465 49.8402 29.1859 49.7001 28.5743C49.6283 28.261 49.4965 27.9132 49.2423 27.6175C48.9679 27.2982 48.598 27.0963 48.1783 27.0404C47.5792 26.9606 47.0491 27.2013 46.6603 27.4551C46.2541 27.7203 45.8496 28.0993 45.4485 28.5455C44.6591 29.4236 43.7473 30.7163 42.7164 32.3859L38.9821 36.2645L33.9389 41.3395L33.9389 41.3394L33.9358 41.3426C30.5478 44.7788 27.0108 48.6021 23.3251 52.8115L23.3251 52.8115L23.3207 52.8165C21.4934 54.9286 20.0331 56.7268 18.9475 58.2065C17.8778 59.6646 17.1184 60.8841 16.7567 61.8234L16.7377 61.8728L16.7234 61.9238L16.609 62.333L16.588 62.4083L16.5777 62.4858C16.5426 62.7491 16.5342 63.1547 16.7565 63.544C17.0145 63.9958 17.4454 64.196 17.8258 64.2466C18.4007 64.3232 19.0038 64.0998 19.4826 63.8761L19.9713 63.6689C20.4338 63.4728 21.0209 63.0972 21.6896 62.6151L21.6949 62.6112C22.3496 62.1334 23.0711 61.5428 23.8577 60.8446C24.7309 60.0827 25.7238 59.0306 26.8326 57.7093L26.8326 57.7094L26.8395 57.7011C27.9599 56.3394 29.0752 54.8378 30.1858 53.1977L30.1858 53.1977L30.191 53.1899C31.6631 50.9759 33.5577 48.4474 35.8806 45.602L35.8837 45.5982ZM44.3523 49.7276C44.3524 49.7276 44.3531 49.7273 44.3543 49.7268C44.3529 49.7274 44.3522 49.7277 44.3523 49.7276Z" fill="white" stroke="white" stroke-width="2.22656"/>
</svg>
